:SAMPLES-PER-SECOND 30
:FULLY-SPECIFIED
:DEGREES
117
root  -15.0965 37.5395 24.9447 159.673 -75.9362 -164.456
RightUpLeg  -20.9913 -5.16558 6.47367
RightLeg  32.7294 -1.22159 -1.10956
RightFoot  -6.91474 0.153919 -5.19407
RightToes  -5.8209e-011 0 -3.6325e-017
Spine  10.6519 -4.10018 10.413
Spine1  9.76264 -3.28622 3.15384
HEad  -14.7348 4.15573 -6.15519
LeftShoulder1  -0.446781 4.74608 -29.8191
LeftArm  -8.73054 6.78478 -47.7603
LeftForeArm  30.6508 -7.90019 -6.5273
LeftHand  -0.0181408 5.99796 2.91921
RightShoulder  -0.624735 -5.43098 25.7013
RightArm  1.76565 -6.13781 44.6561
RightForeArm  10.4082 11.8323 2.75638
RightHand  -0.198208 3.17132 -2.91876
LeftUpLeg  0.403387 1.55613 9.13105
LeftLeg  59.4393 1.19645 2.66927
LeftFoot  12.1631 0.81573 -4.02929
LeftToes  8.00323e-011 7.86695e-011 -1.03868e-010
118
root  -16.2826 37.7857 24.5057 158.35 -75.9543 -163.87
RightUpLeg  -17.5573 -5.53687 6.5633
RightLeg  32.1372 -1.10944 -1.01431
RightFoot  -8.84486 0.0512413 -5.06489
RightToes  -5.8209e-011 0 -3.6325e-017
Spine  10.7691 -3.87324 11.3827
Spine1  10.2106 -2.71863 2.75119
HEad  -13.5103 2.74879 -5.41862
LeftShoulder1  -0.444827 4.7304 -30.1126
LeftArm  -8.42948 6.5544 -47.1353
LeftForeArm  29.9835 -8.24842 -6.61687
LeftHand  -0.00218897 8.30369 1.58529
RightShoulder  -0.610142 -5.4097 25.2865
RightArm  2.90765 -3.1349 45.4305
RightForeArm  9.36776 13.2981 3.21242
RightHand  -0.276883 3.32541 -3.92218
LeftUpLeg  -4.70303 -0.366358 8.76553
LeftLeg  65.2939 -0.946077 -1.55468
LeftFoot  7.36704 0.787292 -5.04275
LeftToes  8.00323e-011 7.86695e-011 -1.03868e-010
119
root  -17.5195 38.0613 24.0678 159.072 -75.4097 -164.905
RightUpLeg  -14.2686 -4.94772 6.54696
RightLeg  30.9481 -1.25024 -1.07131
RightFoot  -10.5657 -0.0390266 -4.84766
RightToes  -5.8209e-011 0 -3.6325e-017
Spine  10.4825 -3.52953 12.2988
Spine1  10.0911 -1.95445 1.78734
HEad  -11.5567 2.34122 -4.97694
LeftShoulder1  -0.517272 4.92992 -30.1168
LeftArm  -7.83404 6.91937 -46.3404
LeftForeArm  29.0682 -9.06607 -6.74948
LeftHand  0.0057031 7.43789 2.40212
RightShoulder  -0.581905 -5.31478 25.3865
RightArm  4.36073 -0.015584 46.0571
RightForeArm  9.12643 14.6382 3.58647
RightHand  -0.386946 3.29525 -5.41538
LeftUpLeg  -9.55786 -1.35974 8.2211
LeftLeg  67.4734 -2.23664 -5.16012
LeftFoot  5.86839 0.752762 -5.21857
LeftToes  8.00323e-011 7.86695e-011 -1.03868e-010
120
root  -18.7793 38.3847 23.6267 161.306 -75.0213 -167.547
RightUpLeg  -10.5603 -4.828 5.93874
RightLeg  29.0535 -0.865226 -0.777517
RightFoot  -11.8468 -0.101344 -4.89617
RightToes  -5.8209e-011 0 -3.6325e-017
Spine  10.0643 -3.02414 12.7487
Spine1  9.87068 -1.16912 0.673842
HEad  -9.82189 2.23853 -5.01271
LeftShoulder1  -0.481179 4.83755 -29.9295
LeftArm  -7.4121 7.60426 -46.1553
LeftForeArm  28.1794 -10.6788 -6.51467
LeftHand  -0.00511118 6.88551 2.36833
RightShoulder  -0.615807 -5.43372 25.1709
RightArm  6.24739 2.77292 46.8436
RightForeArm  8.41611 16.6178 3.90439
RightHand  -0.371183 3.25898 -5.22163
LeftUpLeg  -13.6253 -2.16951 6.98374
LeftLeg  66.2665 -2.30656 -5.07042
LeftFoot  3.76606 0.658769 -5.11205
LeftToes  8.00323e-011 7.86695e-011 -1.03868e-010
121
root  -20.0765 38.7001 23.1403 164.745 -74.4249 -171.421
RightUpLeg  -6.54936 -4.94474 4.94896
RightLeg  26.6287 0.00913469 -0.259779
RightFoot  -13.1334 -0.164171 -4.80994
RightToes  -5.8209e-011 0 -3.6325e-017
Spine  9.36606 -2.42425 12.5256
Spine1  9.87834 -0.437231 -0.573123
HEad  -8.30281 1.86455 -4.86683
LeftShoulder1  -0.485951 4.86828 -29.4487
LeftArm  -6.41371 8.47007 -46.0667
LeftForeArm  25.8509 -12.6688 -6.18297
LeftHand  -0.0124733 5.88336 3.04684
RightShoulder  -0.536638 -5.20359 24.7881
RightArm  7.95521 4.82312 47.773
RightForeArm  6.56412 19.5105 4.1785
RightHand  -0.403459 3.19759 -5.68709
LeftUpLeg  -16.4874 -2.16028 5.64391
LeftLeg  61.7596 -2.24663 -3.9888
LeftFoot  1.35622 0.402306 -3.68987
LeftToes  8.00323e-011 7.86695e-011 -1.03868e-010
122
root  -21.3457 38.9357 22.6665 167.815 -73.6392 -174.812
RightUpLeg  -2.91765 -5.03571 4.06177
RightLeg  24.4753 0.875536 0.0615331
RightFoot  -14.2227 -0.218659 -4.87599
RightToes  -5.8209e-011 0 -3.6325e-017
Spine  8.91667 -1.69538 12.4852
Spine1  9.6533 0.447504 -1.89137
HEad  -7.48812 1.66289 -5.25662
LeftShoulder1  -0.427015 4.71107 -29.2104
LeftArm  -5.2573 8.9317 -45.998
LeftForeArm  23.1399 -14.3667 -5.86826
LeftHand  0.0269506 7.61685 3.32454
RightShoulder  -0.573641 -5.3183 24.8595
RightArm  9.41415 6.91309 48.1426
RightForeArm  6.43387 22.8663 4.57834
RightHand  -0.43858 3.64168 -5.88948
LeftUpLeg  -18.4671 -1.57859 4.51119
LeftLeg  54.5393 -1.86765 -2.34879
LeftFoot  -0.699306 0.291114 -3.10846
LeftToes  8.00323e-011 7.86695e-011 -1.03868e-010
123
root  -22.5629 39.1088 22.2159 169.665 -73.4309 -176.39
RightUpLeg  0.198212 -5.67013 3.45248
RightLeg  21.9789 1.76253 0.261696
RightFoot  -15.1218 -0.265047 -4.92858
RightToes  -5.8209e-011 0 -3.6325e-017
Spine  8.16832 -1.37257 12.5346
Spine1  9.36895 0.753535 -3.16534
HEad  -7.16834 1.65967 -5.34865
LeftShoulder1  -0.425499 4.7094 -29.1199
LeftArm  -4.98085 9.2494 -45.9046
LeftForeArm  22.0182 -15.9609 -5.29604
LeftHand  -0.00226615 6.49421 3.10861
RightShoulder  -0.563761 -5.29435 24.6923
RightArm  10.1464 9.16428 48.7726
RightForeArm  7.06439 26.2124 5.25554
RightHand  -0.45319 3.82403 -5.96669
LeftUpLeg  -20.1105 -1.20723 3.72955
LeftLeg  44.872 -1.58721 -1.30245
LeftFoot  -1.89461 0.303873 -3.54213
LeftToes  8.00323e-011 7.86695e-011 -1.03868e-010
124
root  -23.8168 39.2102 21.733 171.32 -72.8453 -178.436
RightUpLeg  4.00695 -6.25285 2.59973
RightLeg  19.6316 2.96497 0.488262
RightFoot  -16.0615 -0.322903 -5.19077
RightToes  -5.8209e-011 0 -3.6325e-017
Spine  7.52615 -0.905087 11.7236
Spine1  9.99236 1.02733 -3.43597
HEad  -7.27063 1.86249 -5.70621
LeftShoulder1  -0.491667 4.87936 -29.5884
LeftArm  -4.3907 9.22578 -45.6565
LeftForeArm  20.5455 -17.354 -4.90912
LeftHand  0.0165731 7.32599 3.17745
RightShoulder  -0.461538 -5.01231 23.7429
RightArm  10.6879 11.0694 49.7976
RightForeArm  7.47945 29.6383 6.03987
RightHand  -0.46423 3.80328 -6.11508
LeftUpLeg  -19.5316 0.242829 2.75357
LeftLeg  32.5867 -1.75377 -0.831461
LeftFoot  -1.14596 0.362143 -3.9519
LeftToes  8.00323e-011 7.86695e-011 -1.03868e-010
125
root  -25.0669 39.2123 21.2663 171.366 -72.6367 -178.394
RightUpLeg  7.35966 -6.81575 2.22643
RightLeg  17.3435 3.86194 0.752842
RightFoot  -17.007 -0.375728 -5.27805
RightToes  -5.8209e-011 0 -3.6325e-017
Spine  7.11296 -0.682934 11.4319
Spine1  9.76506 1.14508 -3.99987
HEad  -6.93545 2.15071 -5.99556
LeftShoulder1  -0.493487 4.88359 -29.6124
LeftArm  -3.83948 9.13444 -45.455
LeftForeArm  19.8653 -17.8078 -4.8446
LeftHand  0.0169724 6.81166 3.97522
RightShoulder  -0.43245 -4.91639 23.7133
RightArm  10.7241 12.6519 50.4078
RightForeArm  8.15337 32.7309 6.78335
RightHand  -0.42802 3.7552 -5.69888
LeftUpLeg  -18.6735 2.30834 2.04916
LeftLeg  19.3641 -2.82231 -0.772421
LeftFoot  -0.407724 0.578223 -6.02882
LeftToes  8.00323e-011 7.86695e-011 -1.03868e-010
126
root  -26.3247 39.1682 20.7791 171.627 -72.3407 -178.853
RightUpLeg  11.115 -6.74576 1.93124
RightLeg  14.7811 4.22918 0.608945
RightFoot  -17.9579 -0.393459 -4.70281
RightToes  -5.8209e-011 0 -3.6325e-017
Spine  6.57585 -0.468854 10.6167
Spine1  10.3111 1.33804 -4.62164
HEad  -7.04899 3.08814 -6.06679
LeftShoulder1  -0.488737 4.89292 -29.0094
LeftArm  -4.81824 9.31684 -46.0146
LeftForeArm  20.6858 -17.8417 -4.69211
LeftHand  0.0106539 6.61647 3.88545
RightShoulder  -0.416016 -4.85793 23.7982
RightArm  11.7481 14.0506 50.9363
RightForeArm  7.59144 35.542 7.57683
RightHand  -0.456991 4.43867 -5.69222
LeftUpLeg  -17.0126 4.17069 1.21181
LeftLeg  6.71085 -2.64574 -0.674058
LeftFoot  -0.709598 0.627583 -6.6964
LeftToes  8.00323e-011 7.86695e-011 -1.03868e-010
